<svg xmlns="http://www.w3.org/2000/svg" version="1.1" xmlns:xlink="http://www.w3.org/1999/xlink" width="512" height="512" x="0" y="0" viewBox="0 0 24 24" style="enable-background:new 0 0 512 512" xml:space="preserve" class=""><g><path d="M23.297 9.035A2.997 2.997 0 0 0 21.03 8h-.089c-.5-4.493-4.317-8-8.941-8S3.559 3.507 3.059 8H3a2.997 2.997 0 0 0-2.969 3.424l1.061 7.424c.419 2.937 2.973 5.151 5.939 5.151H17c2.966 0 5.52-2.215 5.939-5.151L24 11.424a2.997 2.997 0 0 0-.703-2.39ZM15 17H9a1 1 0 0 1 0-2h6a1 1 0 0 1 0 2ZM5.08 8C5.568 4.613 8.481 2 12 2s6.432 2.613 6.92 6H5.08Z" fill="#7fcdbb" opacity="1" data-original="#000000" class=""></path></g></svg>