<svg xmlns="http://www.w3.org/2000/svg" version="1.1" xmlns:xlink="http://www.w3.org/1999/xlink" width="512" height="512" x="0" y="0" viewBox="0 0 24 24" style="enable-background:new 0 0 512 512" xml:space="preserve" class=""><g><path d="M12 0C5.383 0 0 5.383 0 12s5.383 12 12 12 12-5.383 12-12S18.617 0 12 0Zm1.5 11a1 1 0 1 1 0 2h-5v2c0 .551.448 1 1 1h6a1 1 0 1 1 0 2h-6c-1.654 0-3-1.346-3-3V9c0-1.654 1.346-3 3-3h6a1 1 0 1 1 0 2h-6c-.552 0-1 .449-1 1v2h5Z" fill="#0c5ea8" opacity="1" data-original="#000000" class=""></path></g></svg>