<svg enable-background="new 0 0 512 512" height="512" viewBox="0 0 512 512" width="512" xmlns="http://www.w3.org/2000/svg"><g id="_x32_3"><path id="XMLID_2_" d="m256 34.25c85.36 0 154.53 69.2 154.53 154.53 0 64-114.82 220.49-154.53 292.07-38.07-68.7-154.53-231.83-154.53-292.07 0-85.33 69.2-154.53 154.53-154.53zm69.07 148.71c0-38.03-31.02-69.05-69.07-69.05-38.02 0-69.04 31.02-69.04 69.05 0 38.02 31.02 69.04 69.04 69.04 38.05 0 69.07-31.02 69.07-69.04z" fill="#e74c3c"/><path id="XMLID_1_" d="m256 490.85c-.001 0-.001 0-.002 0-3.635-.001-6.982-1.974-8.745-5.153-10.098-18.222-25.631-42.934-43.617-71.547-49.973-79.498-112.166-178.438-112.166-225.37 0-90.722 73.808-164.53 164.53-164.53s164.53 73.808 164.53 164.53c0 49.378-58.682 141.696-110.456 223.147-17.792 27.99-34.597 54.428-45.33 73.774-1.763 3.177-5.11 5.149-8.744 5.149zm0-446.6c-79.694 0-144.53 64.836-144.53 144.53 0 41.168 63.056 141.481 109.098 214.726 13.602 21.64 25.813 41.065 35.442 57.316 10.349-17.405 23.477-38.059 37.186-59.625 45.297-71.261 107.334-168.857 107.334-212.417 0-79.694-64.836-144.53-144.53-144.53z"/><path id="XMLID_390_" d="m256 262c-43.583 0-79.04-35.457-79.04-79.04 0-43.588 35.457-79.05 79.04-79.05 43.599 0 79.07 35.462 79.07 79.05 0 43.583-35.471 79.04-79.07 79.04zm0-138.09c-32.555 0-59.04 26.49-59.04 59.05 0 32.555 26.485 59.04 59.04 59.04 32.571 0 59.07-26.485 59.07-59.04 0-32.56-26.499-59.05-59.07-59.05z"/></g></svg>