<svg id="flat" height="512" viewBox="0 0 16 16" width="512" xmlns="http://www.w3.org/2000/svg"><g><g><path d="m8 11.04v.96c3.01 0 5 .9 5 1.5s-1.99 1.5-5 1.5v1c2.98 0 6-.86 6-2.5s-3-2.46-6-2.46z" fill="#212121"/></g><g><path d="m8 12v-.96c-3 0-6 .82-6 2.46s3.02 2.5 6 2.5v-1c-3.01 0-5-.9-5-1.5s1.99-1.5 5-1.5z" fill="#5b5c5f"/></g><g><path d="m8 0v14c.16 0 .31-.07.4-.2.47-.63 4.6-6.22 4.6-8.8 0-2.76-2.24-5-5-5z" fill="#d32f2f"/></g><path d="m10 5c0 1.1-.9 2-2 2v-4c1.1 0 2 .9 2 2z" fill="#cfd3d4"/><g><path d="m3 5c0 2.58 4.13 8.17 4.6 8.8.09.13.24.2.4.2v-14c-2.76 0-5 2.24-5 5z" fill="#ef5350"/></g><path d="m8 3v4c-1.1 0-2-.9-2-2s.9-2 2-2z" fill="#f0f0f0"/></g></svg>